# xmcd CD database file
#
# Track frame offsets:
#	150
#	40004
#	68963
#	99419
#	124801
#	167020
#	194482
#	218487
#	264485
#
# Disc length: 4075 seconds
#
# Revision: 0
# Processed by: cddbd v1.4PL0 Copyright (c) Steve Scherf et al.
# Submitted via: CDex 1.50
#
DISCID=7a0fe909
DTITLE=MORGAN FISHER - RECHARGE
DYEAR=1999
DGENRE=New Age
TTITLE0=MORGAN FISHER - HUMTONE #1
TTITLE1=MORGAN FISHER - SHAKERHYTHM #1
TTITLE2=MORGAN FISHER - HUMTONE #2 
TTITLE3=MORGAN FISHER - SHAKERHYTHM #2
TTITLE4=MORGAN FISHER - HUMTONE #3 
TTITLE5=MORGAN FISHER - SHAKERHYTHM #3
TTITLE6=MORGAN FISHER - HUMTONE #4
TTITLE7=MORGAN FISHER - SHAKERHYTHM #4
TTITLE8=MORGAN FISHER - THE RECHARGE THEME
EXTD=YEAR: 1999
EXTT0=
EXTT1=
EXTT2=
EXTT3=
EXTT4=
EXTT5=
EXTT6=
EXTT7=
EXTT8=
PLAYORDER=
